<svg width="30" height="30" viewBox="0 0 30 30" fill="none" xmlns="http://www.w3.org/2000/svg">
<path d="M15.0001 0C9.0092 0 4.13525 4.87394 4.13525 10.8648C4.13525 18.2996 13.8582 29.2144 14.2722 29.6754C14.661 30.1085 15.3399 30.1078 15.728 29.6754C16.142 29.2144 25.865 18.2996 25.865 10.8648C25.8649 4.87394 20.991 0 15.0001 0ZM15.0001 16.3312C11.9859 16.3312 9.53379 13.879 9.53379 10.8648C9.53379 7.85062 11.986 5.39848 15.0001 5.39848C18.0142 5.39848 20.4664 7.85068 20.4664 10.8649C20.4664 13.879 18.0142 16.3312 15.0001 16.3312Z" fill="black"/>
</svg>
